<svg xmlns="http://www.w3.org/2000/svg" viewBox="0 0 512 512">
  <defs>
    <linearGradient id="i1" x1="0" y1="0" x2="0" y2="1">
      <stop offset="0%" stop-color="#e11d48"/>
      <stop offset="100%" stop-color="#9f1239"/>
    </linearGradient>
    <linearGradient id="i2" x1="0" y1="0" x2="1" y2="0">
      <stop offset="0%" stop-color="#38bdf8"/>
      <stop offset="100%" stop-color="#0284c7"/>
    </linearGradient>
  </defs>
  <!-- Dark tech background -->
  <rect x="20" y="20" width="472" height="380" rx="24" fill="#0f172a"/>
  <!-- Circuit lines -->
  <g stroke="#1e293b" stroke-width="2" fill="none">
    <path d="M20 100 H120 V60 H200"/><path d="M20 180 H80 V140 H160 V200 H240"/>
    <path d="M492 100 H400 V60 H320"/><path d="M492 180 H440 V140 H360 V200 H280"/>
    <path d="M20 300 H100 V340 H180"/><path d="M492 300 H420 V340 H340"/>
  </g>
  <g fill="#38bdf8">
    <circle cx="120" cy="100" r="4"/><circle cx="200" cy="60" r="4"/>
    <circle cx="80" cy="180" r="4"/><circle cx="160" cy="140" r="4"/>
    <circle cx="240" cy="200" r="4"/><circle cx="400" cy="100" r="4"/>
    <circle cx="320" cy="60" r="4"/><circle cx="440" cy="180" r="4"/>
    <circle cx="360" cy="140" r="4"/><circle cx="280" cy="200" r="4"/>
  </g>
  
  <!-- Isometric lobster -->
  <!-- Body as hexagonal prism -->
  <polygon points="256,140 316,170 316,250 256,280 196,250 196,170" fill="url(#i1)"/>
  <polygon points="196,170 256,140 256,200 196,230" fill="#be123c"/>
  <polygon points="256,140 316,170 316,230 256,200" fill="#9f1239"/>
  
  <!-- Clock face on front face -->
  <circle cx="256" cy="215" r="32" fill="#0f172a" stroke="#38bdf8" stroke-width="2"/>
  <line x1="256" y1="215" x2="256" y2="192" stroke="#38bdf8" stroke-width="3" stroke-linecap="round"/>
  <line x1="256" y1="215" x2="272" y2="228" stroke="#94a3b8" stroke-width="2" stroke-linecap="round"/>
  <circle cx="256" cy="215" r="3" fill="#38bdf8"/>
  
  <!-- Left claw (isometric block) -->
  <polygon points="196,200 156,180 156,220 196,240" fill="url(#i1)"/>
  <polygon points="156,180 176,160 196,180 196,200 156,220 136,200" fill="#be123c"/>
  
  <!-- Right claw (isometric block) -->
  <polygon points="316,200 356,180 356,220 316,240" fill="url(#i1)"/>
  <polygon points="356,180 336,160 316,180 316,200 356,220 376,200" fill="#9f1239"/>
  
  <!-- Tail -->
  <polygon points="256,280 276,310 236,310" fill="url(#i1)"/>
  <polygon points="276,310 286,340 246,340 236,310" fill="#be123c"/>
  
  <!-- Antennae -->
  <line x1="236" y1="155" x2="216" y2="115" stroke="#94a3b8" stroke-width="2" stroke-linecap="round"/>
  <circle cx="216" cy="115" r="4" fill="#38bdf8"/>
  <line x1="276" y1="155" x2="296" y2="115" stroke="#94a3b8" stroke-width="2" stroke-linecap="round"/>
  <circle cx="296" cy="115" r="4" fill="#38bdf8"/>
  
  <text x="256" y="440" text-anchor="middle" font-family="'Courier New', monospace" font-weight="bold" font-size="30" fill="#0f172a" letter-spacing="4">CLOCK LOBSTER</text>
  <text x="256" y="460" text-anchor="middle" font-family="'Courier New', monospace" font-size="12" fill="#64748b" letter-spacing="3">DIGITAL EMPLOYEES</text>
</svg>