<svg xmlns="http://www.w3.org/2000/svg" viewBox="0 0 1080 1080">
  <!-- Instagram Post Template — 1080x1080 -->

  <!-- Background -->
  <rect width="1080" height="1080" fill="#121214"/>

  <!-- Subtle glow -->
  <circle cx="540" cy="440" r="300" fill="#e11d48" opacity="0.04"/>
  <circle cx="540" cy="440" r="180" fill="#e11d48" opacity="0.03"/>

  <!-- Logo icon -->
  <g transform="translate(400, 130) scale(0.7)">
    <circle cx="200" cy="210" r="78" fill="#be123c"/>
    <g fill="#f8fafc" opacity="0.9">
      <circle cx="200" cy="137" r="4.5"/>
      <circle cx="233" cy="146" r="4"/>
      <circle cx="257" cy="170" r="4"/>
      <circle cx="266" cy="203" r="4.5"/>
      <circle cx="257" cy="236" r="4"/>
      <circle cx="233" cy="260" r="4"/>
      <circle cx="200" cy="269" r="4.5"/>
      <circle cx="167" cy="260" r="4"/>
      <circle cx="143" cy="236" r="4"/>
      <circle cx="134" cy="203" r="4.5"/>
      <circle cx="143" cy="170" r="4"/>
      <circle cx="167" cy="146" r="4"/>
    </g>
    <circle cx="175" cy="175" r="14" fill="#f8fafc"/>
    <circle cx="175" cy="175" r="7" fill="#121214"/>
    <circle cx="178" cy="172" r="3" fill="#f8fafc"/>
    <circle cx="225" cy="175" r="14" fill="#f8fafc"/>
    <circle cx="225" cy="175" r="7" fill="#121214"/>
    <circle cx="228" cy="172" r="3" fill="#f8fafc"/>
    <line x1="200" y1="210" x2="160" y2="172" stroke="#e11d48" stroke-width="18" stroke-linecap="round"/>
    <ellipse cx="140" cy="155" rx="20" ry="30" transform="rotate(-35 140 155)" fill="#e11d48"/>
    <ellipse cx="150" cy="185" rx="13" ry="20" transform="rotate(-15 150 185)" fill="#e11d48"/>
    <line x1="200" y1="210" x2="240" y2="172" stroke="#e11d48" stroke-width="18" stroke-linecap="round"/>
    <ellipse cx="260" cy="155" rx="20" ry="30" transform="rotate(35 260 155)" fill="#e11d48"/>
    <ellipse cx="250" cy="185" rx="13" ry="20" transform="rotate(15 250 185)" fill="#e11d48"/>
    <circle cx="200" cy="210" r="14" fill="#e11d48"/>
    <circle cx="200" cy="210" r="7" fill="#121214"/>
    <path d="M175,280 Q200,315 225,280 Q200,298 175,280" fill="#be123c"/>
    <path d="M185,278 L180,305 L195,285 L200,310 L205,285 L220,305 L215,278" fill="#be123c"/>
    <path d="M190,140 Q180,100 172,68" stroke="#e11d48" stroke-width="3.5" stroke-linecap="round" fill="none"/>
    <circle cx="172" cy="68" r="5" fill="#e11d48"/>
    <path d="M210,140 Q220,100 228,68" stroke="#e11d48" stroke-width="3.5" stroke-linecap="round" fill="none"/>
    <circle cx="228" cy="68" r="5" fill="#e11d48"/>
    <g fill="#be123c">
      <circle cx="138" cy="195" r="7"/>
      <circle cx="132" cy="218" r="7"/>
      <circle cx="138" cy="241" r="7"/>
      <circle cx="262" cy="195" r="7"/>
      <circle cx="268" cy="218" r="7"/>
      <circle cx="262" cy="241" r="7"/>
    </g>
  </g>

  <!-- Headline -->
  <text x="540" y="780" text-anchor="middle" font-family="'Outfit', 'Segoe UI', system-ui, sans-serif" font-size="52" font-weight="700" fill="#f8fafc" letter-spacing="-0.5">Your Digital Employees</text>
  <text x="540" y="845" text-anchor="middle" font-family="'Outfit', 'Segoe UI', system-ui, sans-serif" font-size="52" font-weight="700" fill="#e11d48" letter-spacing="-0.5">Never Clock Out</text>

  <!-- URL -->
  <text x="540" y="980" text-anchor="middle" font-family="'Inter', 'Segoe UI', system-ui, sans-serif" font-size="24" fill="#94a3b8" letter-spacing="2">CLOCKLOBSTER.COM</text>
</svg>
