<svg xmlns="http://www.w3.org/2000/svg" viewBox="0 0 512 512" width="512" height="512">
  <defs>
    <linearGradient id="kBody" x1="0" y1="0" x2="0" y2="1">
      <stop offset="0%" stop-color="#ff6b6b"/>
      <stop offset="100%" stop-color="#ee5253"/>
    </linearGradient>
    <linearGradient id="kClaw" x1="0" y1="0" x2="0" y2="1">
      <stop offset="0%" stop-color="#ff9ff3"/>
      <stop offset="100%" stop-color="#f368e0"/>
    </linearGradient>
  </defs>
  <!-- Soft background circle -->
  <circle cx="256" cy="256" r="240" fill="#fff5f7" stroke="#ffdde1" stroke-width="8"/>

  <!-- Cute little legs -->
  <ellipse cx="190" cy="310" rx="22" ry="10" fill="#ff6b6b" transform="rotate(-20 190 310)"/>
  <ellipse cx="322" cy="310" rx="22" ry="10" fill="#ff6b6b" transform="rotate(20 322 310)"/>
  <ellipse cx="180" cy="350" rx="22" ry="10" fill="#ff6b6b" transform="rotate(-35 180 350)"/>
  <ellipse cx="332" cy="350" rx="22" ry="10" fill="#ff6b6b" transform="rotate(35 332 350)"/>

  <!-- Left claw (big & rounded) -->
  <g transform="translate(-10,0)">
    <path d="M130 200 C90 160, 50 200, 70 250 C80 280, 120 270, 140 240 Z" fill="url(#kClaw)"/>
    <circle cx="85" cy="210" r="5" fill="#fff"/>
    <circle cx="105" cy="200" r="5" fill="#fff"/>
    <circle cx="95" cy="225" r="5" fill="#fff"/>
  </g>

  <!-- Right claw (big & rounded) -->
  <g transform="translate(10,0)">
    <path d="M382 200 C422 160, 462 200, 442 250 C432 280, 392 270, 372 240 Z" fill="url(#kClaw)"/>
    <circle cx="427" cy="210" r="5" fill="#fff"/>
    <circle cx="407" cy="200" r="5" fill="#fff"/>
    <circle cx="417" cy="225" r="5" fill="#fff"/>
  </g>

  <!-- Body -->
  <ellipse cx="256" cy="300" rx="90" ry="110" fill="url(#kBody)"/>

  <!-- Segments -->
  <path d="M175 270 Q256 290 337 270" stroke="#c0392b" stroke-width="4" fill="none" opacity="0.3"/>
  <path d="M170 310 Q256 330 342 310" stroke="#c0392b" stroke-width="4" fill="none" opacity="0.3"/>
  <path d="M185 350 Q256 370 327 350" stroke="#c0392b" stroke-width="4" fill="none" opacity="0.3"/>

  <!-- Face -->
  <circle cx="226" cy="260" r="14" fill="#2d3436"/>
  <circle cx="230" cy="256" r="5" fill="#fff"/>
  <circle cx="286" cy="260" r="14" fill="#2d3436"/>
  <circle cx="290" cy="256" r="5" fill="#fff"/>
  <ellipse cx="256" cy="285" rx="10" ry="6" fill="#ff6b6b" opacity="0.6"/>
  <path d="M240 295 Q256 310 272 295" stroke="#2d3436" stroke-width="4" fill="none" stroke-linecap="round"/>

  <!-- Blush -->
  <ellipse cx="200" cy="280" rx="15" ry="8" fill="#ff9ff3" opacity="0.5"/>
  <ellipse cx="312" cy="280" rx="15" ry="8" fill="#ff9ff3" opacity="0.5"/>

  <!-- Antennae -->
  <path d="M226 200 Q210 140 180 120" stroke="#ff6b6b" stroke-width="5" fill="none" stroke-linecap="round"/>
  <circle cx="180" cy="120" r="8" fill="#ff9ff3"/>
  <path d="M286 200 Q302 140 332 120" stroke="#ff6b6b" stroke-width="5" fill="none" stroke-linecap="round"/>
  <circle cx="332" cy="120" r="8" fill="#ff9ff3"/>

  <!-- Text -->
  <text x="256" y="460" text-anchor="middle" font-family="Arial, sans-serif" font-weight="bold" font-size="42" fill="#2d3436">Clock Lobster</text>
</svg>