<svg xmlns="http://www.w3.org/2000/svg" viewBox="0 0 512 512" width="512" height="512">
  <defs>
    <linearGradient id="moBody" x1="0" y1="0" x2="1" y2="1">
      <stop offset="0%" stop-color="#e11d48"/>
      <stop offset="100%" stop-color="#be123c"/>
    </linearGradient>
    <linearGradient id="moAccent" x1="0" y1="0" x2="1" y2="1">
      <stop offset="0%" stop-color="#38bdf8"/>
      <stop offset="100%" stop-color="#0284c7"/>
    </linearGradient>
    <linearGradient id="moDark" x1="0" y1="0" x2="0" y2="1">
      <stop offset="0%" stop-color="#0f172a"/>
      <stop offset="100%" stop-color="#1e293b"/>
    </linearGradient>
    <filter id="moShadow" x="-20%" y="-20%" width="140%" height="140%">
      <feDropShadow dx="0" dy="8" stdDeviation="12" flood-color="#000" flood-opacity="0.25"/>
    </filter>
  </defs>

  <!-- Dark, sleek card background -->
  <rect x="36" y="36" width="440" height="360" rx="32" fill="url(#moDark)" filter="url(#moShadow)"/>

  <!-- Subtle grid pattern -->
  <g stroke="#334155" stroke-width="1" opacity="0.4">
    <line x1="36" y1="116" x2="476" y2="116"/>
    <line x1="36" y1="196" x2="476" y2="196"/>
    <line x1="36" y1="276" x2="476" y2="276"/>
    <line x1="36" y1="356" x2="476" y2="356"/>
    <line x1="116" y1="36" x2="116" y2="396"/>
    <line x1="196" y1="36" x2="196" y2="396"/>
    <line x1="276" y1="36" x2="276" y2="396"/>
    <line x1="356" y1="36" x2="356" y2="396"/>
  </g>

  <!-- Lobster icon -->
  <g transform="translate(0, -10)">
    <!-- Tail -->
    <path d="M236 340 Q256 365 276 340 L268 315 Q256 330 244 315 Z" fill="url(#moBody)"/>
    <path d="M244 315 Q256 330 268 315 L260 290 Q256 305 252 290 Z" fill="url(#moBody)"/>

    <!-- Body -->
    <ellipse cx="256" cy="240" rx="70" ry="90" fill="url(#moBody)"/>

    <!-- Left claw -->
    <path d="M190 200 C150 160, 110 200, 125 250 C135 280, 165 270, 185 240 Z" fill="url(#moBody)"/>
    <path d="M130 210 L145 220 L135 235" fill="none" stroke="#fff" stroke-width="3" stroke-linecap="round"/>

    <!-- Right claw -->
    <path d="M322 200 C362 160, 402 200, 387 250 C377 280, 347 270, 327 240 Z" fill="url(#moBody)"/>
    <path d="M382 210 L367 220 L377 235" fill="none" stroke="#fff" stroke-width="3" stroke-linecap="round"/>

    <!-- Antennae with neon cyan tips -->
    <path d="M230 160 Q210 110 185 90" fill="none" stroke="#94a3b8" stroke-width="3" stroke-linecap="round"/>
    <circle cx="185" cy="90" r="6" fill="url(#moAccent)"/>
    <path d="M282 160 Q302 110 327 90" fill="none" stroke="#94a3b8" stroke-width="3" stroke-linecap="round"/>
    <circle cx="327" cy="90" r="6" fill="url(#moAccent)"/>

    <!-- Segments -->
    <path d="M190 210 Q256 230 322 210" stroke="#be123c" stroke-width="3" fill="none" opacity="0.6"/>
    <path d="M186 240 Q256 260 326 240" stroke="#be123c" stroke-width="3" fill="none" opacity="0.6"/>
    <path d="M192 270 Q256 290 320 270" stroke="#be123c" stroke-width="3" fill="none" opacity="0.6"/>

    <!-- Sleek clock overlay -->
    <circle cx="256" cy="240" r="38" fill="#0f172a" stroke="url(#moAccent)" stroke-width="3"/>
    <line x1="256" y1="240" x2="256" y2="215" stroke="#38bdf8" stroke-width="3" stroke-linecap="round"/>
    <line x1="256" y1="240" x2="275" y2="255" stroke="#94a3b8" stroke-width="3" stroke-linecap="round"/>
    <circle cx="256" cy="240" r="4" fill="#38bdf8"/>

    <!-- Minimal hour markers -->
    <line x1="256" y1="205" x2="256" y2="212" stroke="#38bdf8" stroke-width="2"/>
    <line x1="256" y1="275" x2="256" y2="268" stroke="#38bdf8" stroke-width="2"/>
    <line x1="221" y1="240" x2="228" y2="240" stroke="#38bdf8" stroke-width="2"/>
    <line x1="291" y1="240" x2="284" y2="240" stroke="#38bdf8" stroke-width="2"/>
  </g>

  <!-- Wordmark -->
  <text x="256" y="445" text-anchor="middle" font-family="'Segoe UI', Roboto, Arial, sans-serif" font-weight="700" font-size="36" fill="#f8fafc" letter-spacing="2">Clock Lobster</text>
  <text x="256" y="465" text-anchor="middle" font-family="'Segoe UI', Roboto, Arial, sans-serif" font-weight="400" font-size="12" fill="#94a3b8" letter-spacing="4">AUTOMATION AGENCY</text>
</svg>