<svg xmlns="http://www.w3.org/2000/svg" viewBox="0 0 512 512">
  <defs>
    <linearGradient id="mg1" x1="0" y1="0" x2="1" y2="1">
      <stop offset="0%" stop-color="#0f172a"/>
      <stop offset="100%" stop-color="#1e293b"/>
    </linearGradient>
    <linearGradient id="mg2" x1="0" y1="0" x2="1" y2="1">
      <stop offset="0%" stop-color="#e11d48"/>
      <stop offset="100%" stop-color="#be123c"/>
    </linearGradient>
    <linearGradient id="mg3" x1="0" y1="0" x2="1" y2="0">
      <stop offset="0%" stop-color="#38bdf8"/>
      <stop offset="100%" stop-color="#0284c7"/>
    </linearGradient>
    <filter id="mgShadow" x="-20%" y="-20%" width="140%" height="140%">
      <feDropShadow dx="0" dy="12" stdDeviation="16" flood-color="#000" flood-opacity="0.3"/>
    </filter>
  </defs>
  <!-- Sleek card background -->
  <rect x="32" y="32" width="448" height="360" rx="40" fill="url(#mg1)" filter="url(#mgShadow)"/>
  
  <!-- Subtle grid -->
  <g stroke="#334155" stroke-width="1" opacity="0.3">
    <line x1="32" y1="112" x2="480" y2="112"/><line x1="32" y1="192" x2="480" y2="192"/>
    <line x1="32" y1="272" x2="480" y2="272"/><line x1="32" y1="352" x2="480" y2="352"/>
    <line x1="112" y1="32" x2="112" y2="392"/><line x1="192" y1="32" x2="192" y2="392"/>
    <line x1="272" y1="32" x2="272" y2="392"/><line x1="352" y1="32" x2="352" y2="392"/>
  </g>
  
  <!-- Lobster -->
  <g transform="translate(0,-10)">
    <!-- Tail -->
    <path d="M240 340 Q256 360 272 340 L264 318 Q256 332 248 318 Z" fill="url(#mg2)"/>
    <path d="M248 318 Q256 332 264 318 L256 296 Q256 310 256 296 Z" fill="url(#mg2)" opacity="0.8"/>
    
    <!-- Body -->
    <ellipse cx="256" cy="240" rx="65" ry="85" fill="url(#mg2)"/>
    
    <!-- Claws -->
    <path d="M195 200 C155 160, 115 200, 130 250 C140 280, 170 270, 185 240 Z" fill="url(#mg2)"/>
    <path d="M317 200 C357 160, 397 200, 382 250 C372 280, 342 270, 327 240 Z" fill="url(#mg2)"/>
    
    <!-- Segments -->
    <path d="M195 220 Q256 240 317 220" stroke="#9f1239" stroke-width="3" fill="none" opacity="0.5"/>
    <path d="M190 250 Q256 270 322 250" stroke="#9f1239" stroke-width="3" fill="none" opacity="0.5"/>
    <path d="M200 280 Q256 300 312 280" stroke="#9f1239" stroke-width="3" fill="none" opacity="0.5"/>
    
    <!-- Antennae -->
    <path d="M232 160 Q216 110 192 90" fill="none" stroke="#94a3b8" stroke-width="3" stroke-linecap="round"/>
    <circle cx="192" cy="90" r="5" fill="url(#mg3)"/>
    <path d="M280 160 Q296 110 320 90" fill="none" stroke="#94a3b8" stroke-width="3" stroke-linecap="round"/>
    <circle cx="320" cy="90" r="5" fill="url(#mg3)"/>
    
    <!-- Glowing clock overlay -->
    <circle cx="256" cy="240" r="42" fill="#0f172a" stroke="url(#mg3)" stroke-width="4"/>
    <line x1="256" y1="240" x2="256" y2="210" stroke="#38bdf8" stroke-width="4" stroke-linecap="round"/>
    <line x1="256" y1="240" x2="280" y2="258" stroke="#94a3b8" stroke-width="3" stroke-linecap="round"/>
    <circle cx="256" cy="240" r="5" fill="#38bdf8"/>
    <!-- Markers -->
    <line x1="256" y1="200" x2="256" y2="208" stroke="#38bdf8" stroke-width="2"/>
    <line x1="256" y1="280" x2="256" y2="272" stroke="#38bdf8" stroke-width="2"/>
    <line x1="216" y1="240" x2="224" y2="240" stroke="#38bdf8" stroke-width="2"/>
    <line x1="296" y1="240" x2="288" y2="240" stroke="#38bdf8" stroke-width="2"/>
  </g>
  
  <text x="256" y="440" text-anchor="middle" font-family="'Segoe UI', Arial, sans-serif" font-weight="700" font-size="34" fill="#f8fafc" letter-spacing="2">Clock Lobster</text>
  <text x="256" y="462" text-anchor="middle" font-family="'Segoe UI', Arial, sans-serif" font-size="11" fill="#94a3b8" letter-spacing="5">AUTOMATION AGENCY</text>
</svg>