<svg xmlns="http://www.w3.org/2000/svg" viewBox="0 0 512 512">
  <defs>
    <linearGradient id="m1" x1="0" y1="0" x2="1" y2="1">
      <stop offset="0%" stop-color="#1e293b"/>
      <stop offset="100%" stop-color="#0f172a"/>
    </linearGradient>
  </defs>
  <!-- Outer seal rings -->
  <circle cx="256" cy="230" r="210" fill="none" stroke="#0f172a" stroke-width="3"/>
  <circle cx="256" cy="230" r="200" fill="none" stroke="#0f172a" stroke-width="1"/>
  <circle cx="256" cy="230" r="180" fill="none" stroke="#e11d48" stroke-width="2"/>
  
  <!-- C and L monogram forming clock/lobster -->
  <!-- C as outer circle with a gap -->
  <path d="M256 110 A120 120 0 1 0 256 350" fill="none" stroke="#0f172a" stroke-width="20" stroke-linecap="round"/>
  <!-- L as clock hand inside -->
  <line x1="256" y1="230" x2="256" y2="150" stroke="#0f172a" stroke-width="18" stroke-linecap="round"/>
  <line x1="256" y1="230" x2="316" y2="230" stroke="#0f172a" stroke-width="18" stroke-linecap="round"/>
  
  <!-- Lobster claw accents completing the C -->
  <path d="M150 180 C110 160, 90 200, 110 240 C120 260, 150 250, 160 230" fill="none" stroke="#e11d48" stroke-width="14" stroke-linecap="round"/>
  <path d="M362 180 C402 160, 422 200, 402 240 C392 260, 362 250, 352 230" fill="none" stroke="#e11d48" stroke-width="14" stroke-linecap="round"/>
  
  <!-- Center dot -->
  <circle cx="256" cy="230" r="12" fill="#e11d48"/>
  
  <!-- Decorative dots around seal -->
  <g fill="#0f172a">
    <circle cx="256" cy="30" r="4"/><circle cx="256" cy="430" r="4"/>
    <circle cx="46" cy="230" r="4"/><circle cx="466" cy="230" r="4"/>
    <circle cx="116" cy="90" r="3"/><circle cx="396" cy="90" r="3"/>
    <circle cx="116" cy="370" r="3"/><circle cx="396" cy="370" r="3"/>
  </g>
  
  <text x="256" y="470" text-anchor="middle" font-family="Georgia, serif" font-weight="bold" font-size="28" fill="#0f172a" letter-spacing="4">CLOCK LOBSTER</text>
  <text x="256" y="488" text-anchor="middle" font-family="Arial, sans-serif" font-size="9" fill="#64748b" letter-spacing="6">EST. 2026</text>
</svg>