<svg xmlns="http://www.w3.org/2000/svg" viewBox="0 0 512 512">
  <defs>
    <linearGradient id="s1" x1="0" y1="0" x2="1" y2="1">
      <stop offset="0%" stop-color="#0f172a"/>
      <stop offset="100%" stop-color="#1e293b"/>
    </linearGradient>
    <linearGradient id="s2" x1="0" y1="0" x2="1" y2="1">
      <stop offset="0%" stop-color="#e11d48"/>
      <stop offset="100%" stop-color="#be123c"/>
    </linearGradient>
  </defs>
  <!-- Shield background -->
  <path d="M256 40 L450 110 L450 260 C450 380 350 450 256 480 C162 450 62 380 62 260 L62 110 Z" fill="url(#s1)" stroke="#fbbf24" stroke-width="4"/>
  <!-- Inner border -->
  <path d="M256 58 L432 122 L432 260 C432 370 340 435 256 462 C172 435 80 370 80 260 L80 122 Z" fill="none" stroke="#fbbf24" stroke-width="2" opacity="0.6"/>
  
  <!-- Geometric lobster -->
  <!-- Tail segments -->
  <polygon points="256,380 236,350 276,350" fill="url(#s2)"/>
  <polygon points="236,350 222,320 290,320 276,350" fill="url(#s2)"/>
  
  <!-- Body / Clock -->
  <circle cx="256" cy="250" r="70" fill="#0f172a" stroke="#fbbf24" stroke-width="3"/>
  <circle cx="256" cy="250" r="60" fill="none" stroke="#334155" stroke-width="1"/>
  <!-- Clock markers -->
  <g fill="#fbbf24">
    <circle cx="256" cy="195" r="3"/><circle cx="256" cy="305" r="3"/>
    <circle cx="191" cy="250" r="3"/><circle cx="321" cy="250" r="3"/>
    <circle cx="211" cy="205" r="2"/><circle cx="301" cy="205" r="2"/>
    <circle cx="211" cy="295" r="2"/><circle cx="301" cy="295" r="2"/>
  </g>
  <!-- Hands -->
  <line x1="256" y1="250" x2="256" y2="210" stroke="#f8fafc" stroke-width="4" stroke-linecap="round"/>
  <line x1="256" y1="250" x2="285" y2="270" stroke="#e11d48" stroke-width="3" stroke-linecap="round"/>
  <circle cx="256" cy="250" r="5" fill="#fbbf24"/>
  
  <!-- Claws - angular geometric -->
  <polygon points="186,240 140,200 120,230 150,260" fill="url(#s2)"/>
  <polygon points="140,200 130,180 160,190" fill="url(#s2)"/>
  <polygon points="326,240 372,200 392,230 362,260" fill="url(#s2)"/>
  <polygon points="372,200 382,180 352,190" fill="url(#s2)"/>
  
  <!-- Antennae -->
  <line x1="240" y1="185" x2="220" y2="130" stroke="#94a3b8" stroke-width="2" stroke-linecap="round"/>
  <line x1="272" y1="185" x2="292" y2="130" stroke="#94a3b8" stroke-width="2" stroke-linecap="round"/>
  <circle cx="220" cy="130" r="3" fill="#fbbf24"/>
  <circle cx="292" cy="130" r="3" fill="#fbbf24"/>
  
  <!-- Wordmark inside shield -->
  <text x="256" y="435" text-anchor="middle" font-family="Georgia, serif" font-weight="bold" font-size="26" fill="#fbbf24" letter-spacing="3">CLOCK LOBSTER</text>
</svg>