<svg xmlns="http://www.w3.org/2000/svg" viewBox="0 0 512 512">
  <defs>
    <linearGradient id="w1" x1="0" y1="0" x2="1" y2="0">
      <stop offset="0%" stop-color="#e11d48"/>
      <stop offset="100%" stop-color="#be123c"/>
    </linearGradient>
  </defs>
  
  <!-- Horizontal lockup layout -->
  <!-- Icon on left -->
  <g transform="translate(60, 206)">
    <!-- Stopwatch / lobster hybrid -->
    <circle cx="70" cy="70" r="65" fill="none" stroke="#0f172a" stroke-width="8"/>
    <circle cx="70" cy="70" r="55" fill="#f8fafc" stroke="#e2e8f0" stroke-width="1"/>
    
    <!-- Clock face -->
    <g fill="#0f172a">
      <rect x="66" y="18" width="8" height="6" rx="1"/><rect x="66" y="116" width="8" height="6" rx="1"/>
      <rect x="18" y="66" width="6" height="8" rx="1"/><rect x="116" y="66" width="6" height="8" rx="1"/>
    </g>
    <line x1="70" y1="70" x2="70" y2="35" stroke="#0f172a" stroke-width="5" stroke-linecap="round"/>
    <line x1="70" y1="70" x2="95" y2="85" stroke="#e11d48" stroke-width="4" stroke-linecap="round"/>
    <circle cx="70" cy="70" r="6" fill="#0f172a"/>
    
    <!-- Stopwatch crown -->
    <rect x="64" y="2" width="12" height="10" rx="2" fill="#0f172a"/>
    <rect x="60" y="-4" width="20" height="6" rx="2" fill="#0f172a"/>
    
    <!-- Lobster claws wrapping around -->
    <path d="M5 50 C-15 30, -25 50, -15 70 C-10 80, 10 75, 20 65" fill="none" stroke="url(#w1)" stroke-width="6" stroke-linecap="round"/>
    <path d="M-15 70 L-25 65 L-20 55" fill="none" stroke="#0f172a" stroke-width="4" stroke-linecap="round"/>
    
    <path d="M135 50 C155 30, 165 50, 155 70 C150 80, 130 75, 120 65" fill="none" stroke="url(#w1)" stroke-width="6" stroke-linecap="round"/>
    <path d="M155 70 L165 65 L160 55" fill="none" stroke="#0f172a" stroke-width="4" stroke-linecap="round"/>
    
    <!-- Antennae -->
    <path d="M50 10 Q40 -20 25 -30" fill="none" stroke="#0f172a" stroke-width="3" stroke-linecap="round"/>
    <path d="M90 10 Q100 -20 115 -30" fill="none" stroke="#0f172a" stroke-width="3" stroke-linecap="round"/>
  </g>
  
  <!-- Wordmark to right -->
  <text x="240" y="260" font-family="'Segoe UI', Arial, sans-serif" font-weight="800" font-size="48" fill="#0f172a" letter-spacing="-1">Clock</text>
  <text x="240" y="310" font-family="'Segoe UI', Arial, sans-serif" font-weight="800" font-size="48" fill="#e11d48" letter-spacing="-1">Lobster</text>
  
  <!-- Subtitle -->
  <text x="240" y="340" font-family="'Segoe UI', Arial, sans-serif" font-weight="400" font-size="14" fill="#64748b" letter-spacing="4">AUTOMATION AGENCY</text>
  
  <!-- Underline accent -->
  <line x1="240" y1="355" x2="440" y2="355" stroke="#e11d48" stroke-width="4" stroke-linecap="round"/>
</svg>