<svg xmlns="http://www.w3.org/2000/svg" viewBox="0 0 512 512">
  <defs>
    <linearGradient id="a1" x1="0" y1="0" x2="1" y2="1">
      <stop offset="0%" stop-color="#e11d48"/>
      <stop offset="100%" stop-color="#be123c"/>
    </linearGradient>
  </defs>
  <!-- Clean white background with subtle centering grid -->
  <line x1="256" y1="40" x2="256" y2="472" stroke="#e2e8f0" stroke-width="1"/>
  <line x1="40" y1="256" x2="472" y2="256" stroke="#e2e8f0" stroke-width="1"/>
  
  <!-- Central circle / clock -->
  <circle cx="256" cy="256" r="90" fill="none" stroke="#0f172a" stroke-width="8"/>
  <circle cx="256" cy="256" r="78" fill="none" stroke="#e2e8f0" stroke-width="1"/>
  
  <!-- Clock hands forming an abstract X with the center -->
  <line x1="256" y1="256" x2="256" y2="186" stroke="#0f172a" stroke-width="8" stroke-linecap="round"/>
  <line x1="256" y1="256" x2="316" y2="296" stroke="#0f172a" stroke-width="6" stroke-linecap="round"/>
  <circle cx="256" cy="256" r="10" fill="#e11d48"/>
  
  <!-- Abstract claw shapes - symmetrical arcs -->
  <path d="M166 256 C120 180, 80 200, 100 280 C110 320, 150 290, 170 260" fill="none" stroke="url(#a1)" stroke-width="12" stroke-linecap="round"/>
  <path d="M100 280 L75 270 L90 245" fill="none" stroke="#0f172a" stroke-width="8" stroke-linecap="round" stroke-linejoin="round"/>
  
  <path d="M346 256 C392 180, 432 200, 412 280 C402 320, 362 290, 342 260" fill="none" stroke="url(#a1)" stroke-width="12" stroke-linecap="round"/>
  <path d="M412 280 L437 270 L422 245" fill="none" stroke="#0f172a" stroke-width="8" stroke-linecap="round" stroke-linejoin="round"/>
  
  <!-- Antennae as elegant curves -->
  <path d="M220 190 Q200 120 170 90" fill="none" stroke="#0f172a" stroke-width="5" stroke-linecap="round"/>
  <path d="M292 190 Q312 120 342 90" fill="none" stroke="#0f172a" stroke-width="5" stroke-linecap="round"/>
  <circle cx="170" cy="90" r="6" fill="url(#a1)"/>
  <circle cx="342" cy="90" r="6" fill="url(#a1)"/>
  
  <!-- Tail as three simple diamonds -->
  <polygon points="256,366 242,346 256,326 270,346" fill="#0f172a"/>
  <polygon points="256,392 242,372 256,352 270,372" fill="#0f172a" opacity="0.7"/>
  
  <text x="256" y="472" text-anchor="middle" font-family="Helvetica, Arial, sans-serif" font-weight="300" font-size="28" fill="#0f172a" letter-spacing="10">CLOCK LOBSTER</text>
</svg>