<svg xmlns="http://www.w3.org/2000/svg" viewBox="0 0 512 512">
  <defs>
    <linearGradient id="ad1" x1="0" y1="0" x2="0" y2="1">
      <stop offset="0%" stop-color="#1e1b4b"/>
      <stop offset="100%" stop-color="#312e81"/>
    </linearGradient>
    <linearGradient id="ad2" x1="0" y1="0" x2="1" y2="1">
      <stop offset="0%" stop-color="#fbbf24"/>
      <stop offset="100%" stop-color="#d97706"/>
    </linearGradient>
  </defs>
  <!-- Art deco sunburst background -->
  <circle cx="256" cy="230" r="220" fill="url(#ad1)"/>
  <g stroke="#fbbf24" stroke-width="1" opacity="0.3">
    <line x1="256" y1="10" x2="256" y2="450"/>
    <line x1="36" y1="230" x2="476" y2="230"/>
    <line x1="100" y1="74" x2="412" y2="386"/>
    <line x1="412" y1="74" x2="100" y2="386"/>
    <line x1="74" y1="100" x2="386" y2="412"/>
    <line x1="386" y1="100" x2="74" y2="412"/>
  </g>
  
  <!-- Double circle frame -->
  <circle cx="256" cy="230" r="190" fill="none" stroke="url(#ad2)" stroke-width="4"/>
  <circle cx="256" cy="230" r="178" fill="none" stroke="url(#ad2)" stroke-width="1"/>
  
  <!-- Lobster - symmetrical geometric -->
  <!-- Body / clock -->
  <circle cx="256" cy="230" r="60" fill="#0f172a" stroke="url(#ad2)" stroke-width="3"/>
  <!-- Art deco clock markers -->
  <g fill="#fbbf24">
    <rect x="252" y="166" width="8" height="14"/><rect x="252" y="280" width="8" height="14"/>
    <rect x="190" y="226" width="14" height="8"/><rect x="308" y="226" width="14" height="8"/>
  </g>
  <line x1="256" y1="230" x2="256" y2="186" stroke="#f8fafc" stroke-width="4" stroke-linecap="round"/>
  <line x1="256" y1="230" x2="286" y2="250" stroke="#fbbf24" stroke-width="3" stroke-linecap="round"/>
  <circle cx="256" cy="230" r="5" fill="#fbbf24"/>
  
  <!-- Geometric claws -->
  <polygon points="196,210 140,170 120,200 160,240" fill="#0f172a" stroke="url(#ad2)" stroke-width="2"/>
  <polygon points="140,170 130,150 160,160" fill="#0f172a" stroke="url(#ad2)" stroke-width="2"/>
  <polygon points="316,210 372,170 392,200 352,240" fill="#0f172a" stroke="url(#ad2)" stroke-width="2"/>
  <polygon points="372,170 382,150 352,160" fill="#0f172a" stroke="url(#ad2)" stroke-width="2"/>
  
  <!-- Tail -->
  <polygon points="256,300 236,330 276,330" fill="#0f172a" stroke="url(#ad2)" stroke-width="2"/>
  <polygon points="236,330 226,360 286,360 276,330" fill="#0f172a" stroke="url(#ad2)" stroke-width="2"/>
  
  <!-- Antennae with diamond tips -->
  <line x1="236" y1="178" x2="216" y2="120" stroke="url(#ad2)" stroke-width="3" stroke-linecap="round"/>
  <polygon points="216,120 210,110 222,110" fill="url(#ad2)"/>
  <line x1="276" y1="178" x2="296" y2="120" stroke="url(#ad2)" stroke-width="3" stroke-linecap="round"/>
  <polygon points="296,120 290,110 302,110" fill="url(#ad2)"/>
  
  <text x="256" y="450" text-anchor="middle" font-family="Georgia, serif" font-weight="bold" font-size="28" fill="url(#ad2)" letter-spacing="4">CLOCK LOBSTER</text>
  <text x="256" y="468" text-anchor="middle" font-family="Arial, sans-serif" font-size="10" fill="#94a3b8" letter-spacing="6">AUTOMATION AGENCY</text>
</svg>