<svg xmlns="http://www.w3.org/2000/svg" viewBox="0 0 512 512">
  <defs>
    <linearGradient id="sp1" x1="0" y1="0" x2="1" y2="0">
      <stop offset="0%" stop-color="#0f172a"/>
      <stop offset="100%" stop-color="#334155"/>
    </linearGradient>
  </defs>
  <!-- Outer ring -->
  <circle cx="256" cy="230" r="210" fill="none" stroke="#0f172a" stroke-width="8"/>
  <circle cx="256" cy="230" r="198" fill="none" stroke="#e11d48" stroke-width="2" opacity="0.8"/>
  
  <!-- Side profile lobster facing right -->
  <!-- Tail curled under -->
  <path d="M140 340 Q120 300 150 280 Q180 260 200 300" fill="none" stroke="url(#sp1)" stroke-width="14" stroke-linecap="round"/>
  <path d="M155 325 Q140 290 165 275" fill="none" stroke="url(#sp1)" stroke-width="12" stroke-linecap="round"/>
  
  <!-- Body segments -->
  <ellipse cx="220" cy="240" rx="35" ry="50" fill="url(#sp1)" transform="rotate(-15 220 240)"/>
  <ellipse cx="260" cy="225" rx="40" ry="55" fill="url(#sp1)" transform="rotate(-10 260 225)"/>
  <ellipse cx="305" cy="215" rx="38" ry="50" fill="url(#sp1)" transform="rotate(-5 305 215)"/>
  
  <!-- Carapace / Clock face -->
  <circle cx="330" cy="205" r="45" fill="#f8fafc" stroke="#0f172a" stroke-width="4"/>
  <circle cx="330" cy="205" r="38" fill="none" stroke="#e2e8f0" stroke-width="1"/>
  <!-- Clock ticks -->
  <g fill="#0f172a">
    <rect x="326" y="163" width="8" height="4" rx="1"/>
    <rect x="326" y="243" width="8" height="4" rx="1"/>
    <rect x="288" y="201" width="4" height="8" rx="1"/>
    <rect x="368" y="201" width="4" height="8" rx="1"/>
  </g>
  <!-- Hands -->
  <line x1="330" y1="205" x2="330" y2="175" stroke="#0f172a" stroke-width="4" stroke-linecap="round"/>
  <line x1="330" y1="205" x2="355" y2="220" stroke="#e11d48" stroke-width="3" stroke-linecap="round"/>
  <circle cx="330" cy="205" r="4" fill="#0f172a"/>
  
  <!-- Large claw (chela) -->
  <path d="M360 190 C420 150, 460 180, 440 230 C425 265, 385 250 370 220" fill="none" stroke="url(#sp1)" stroke-width="14" stroke-linecap="round"/>
  <path d="M440 230 C455 210, 445 190 430 200" fill="none" stroke="url(#sp1)" stroke-width="10" stroke-linecap="round"/>
  
  <!-- Small claw -->
  <path d="M345 235 C380 270, 400 260 390 230" fill="none" stroke="url(#sp1)" stroke-width="10" stroke-linecap="round"/>
  
  <!-- Antennae -->
  <path d="M300 170 Q280 120 250 100" fill="none" stroke="#0f172a" stroke-width="3" stroke-linecap="round"/>
  <path d="M315 165 Q310 110 290 85" fill="none" stroke="#0f172a" stroke-width="3" stroke-linecap="round"/>
  
  <!-- Legs -->
  <line x1="210" y1="280" x2="180" y2="310" stroke="#0f172a" stroke-width="4" stroke-linecap="round"/>
  <line x1="235" y1="285" x2="210" y2="320" stroke="#0f172a" stroke-width="4" stroke-linecap="round"/>
  <line x1="265" y1="280" x2="250" y2="315" stroke="#0f172a" stroke-width="4" stroke-linecap="round"/>
  
  <text x="256" y="470" text-anchor="middle" font-family="Arial, sans-serif" font-weight="bold" font-size="30" fill="#0f172a" letter-spacing="3">CLOCK LOBSTER</text>
</svg>