<svg xmlns="http://www.w3.org/2000/svg" viewBox="0 0 512 512">
  <defs>
    <linearGradient id="n1" x1="0" y1="0" x2="1" y2="1">
      <stop offset="0%" stop-color="#121214"/>
      <stop offset="100%" stop-color="#1e293b"/>
    </linearGradient>
  </defs>
  <!-- Dark circle -->
  <circle cx="256" cy="240" r="200" fill="url(#n1)"/>
  
  <!-- Clock face (negative cut) -->
  <circle cx="256" cy="240" r="100" fill="#f8fafc"/>
  
  <!-- Clock markers in dark -->
  <g fill="#121214">
    <rect x="252" y="148" width="8" height="16" rx="2"/>
    <rect x="252" y="316" width="8" height="16" rx="2"/>
    <rect x="148" y="236" width="16" height="8" rx="2"/>
    <rect x="348" y="236" width="16" height="8" rx="2"/>
  </g>
  <!-- Hands -->
  <line x1="256" y1="240" x2="256" y2="180" stroke="#121214" stroke-width="6" stroke-linecap="round"/>
  <line x1="256" y1="240" x2="300" y2="275" stroke="#e11d48" stroke-width="5" stroke-linecap="round"/>
  <circle cx="256" cy="240" r="7" fill="#121214"/>
  
  <!-- Lobster claws cut out of dark circle -->
  <!-- Left claw shape (white) -->
  <path d="M156 240 C120 180, 80 200, 90 260 C100 300, 140 280, 160 260 Z" fill="#f8fafc"/>
  <path d="M90 260 L70 250 L85 230" fill="none" stroke="#121214" stroke-width="4" stroke-linecap="round"/>
  
  <!-- Right claw shape (white) -->
  <path d="M356 240 C392 180, 432 200, 422 260 C412 300, 372 280, 352 260 Z" fill="#f8fafc"/>
  <path d="M422 260 L442 250 L427 230" fill="none" stroke="#121214" stroke-width="4" stroke-linecap="round"/>
  
  <!-- Antennae as thin white arcs -->
  <path d="M220 160 Q200 100 170 80" fill="none" stroke="#f8fafc" stroke-width="4" stroke-linecap="round"/>
  <path d="M292 160 Q312 100 342 80" fill="none" stroke="#f8fafc" stroke-width="4" stroke-linecap="round"/>
  
  <!-- Outer ring -->
  <circle cx="256" cy="240" r="200" fill="none" stroke="#e11d48" stroke-width="6"/>
  <circle cx="256" cy="240" r="188" fill="none" stroke="#94a3b8" stroke-width="1" opacity="0.5"/>
  
  <text x="256" y="470" text-anchor="middle" font-family="Helvetica, Arial, sans-serif" font-weight="300" font-size="32" fill="#1e293b" letter-spacing="8">CLOCK LOBSTER</text>
</svg>